<svg id="visual" viewBox="0 0 1920 740" width="1920" height="740" xmlns="http://www.w3.org/2000/svg" xmlns:xlink="http://www.w3.org/1999/xlink" version="1.1"><path d="M0 378L16 375.7C32 373.3 64 368.7 96 356.8C128 345 160 326 192 333.7C224 341.3 256 375.7 288 369C320 362.3 352 314.7 384 302.3C416 290 448 313 480 344.8C512 376.7 544 417.3 576 411.5C608 405.7 640 353.3 672 323.3C704 293.3 736 285.7 768 311.3C800 337 832 396 864 408.7C896 421.3 928 387.7 960 380.2C992 372.7 1024 391.3 1056 380.2C1088 369 1120 328 1152 311.3C1184 294.7 1216 302.3 1248 313.5C1280 324.7 1312 339.3 1344 355.2C1376 371 1408 388 1440 372.8C1472 357.7 1504 310.3 1536 306.8C1568 303.3 1600 343.7 1632 356.3C1664 369 1696 354 1728 362.8C1760 371.7 1792 404.3 1824 407.3C1856 410.3 1888 383.7 1904 370.3L1920 357L1920 0L1904 0C1888 0 1856 0 1824 0C1792 0 1760 0 1728 0C1696 0 1664 0 1632 0C1600 0 1568 0 1536 0C1504 0 1472 0 1440 0C1408 0 1376 0 1344 0C1312 0 1280 0 1248 0C1216 0 1184 0 1152 0C1120 0 1088 0 1056 0C1024 0 992 0 960 0C928 0 896 0 864 0C832 0 800 0 768 0C736 0 704 0 672 0C640 0 608 0 576 0C544 0 512 0 480 0C448 0 416 0 384 0C352 0 320 0 288 0C256 0 224 0 192 0C160 0 128 0 96 0C64 0 32 0 16 0L0 0Z" fill="#00ffc6" stroke-linecap="round" stroke-linejoin="miter"></path></svg>