<svg id="visual" viewBox="0 0 1920 1080" width="1920" height="1080" xmlns="http://www.w3.org/2000/svg" xmlns:xlink="http://www.w3.org/1999/xlink" version="1.1"><path d="M0 411L175 293L349 282L524 206L698 239L873 217L1047 217L1222 379L1396 217L1571 174L1745 249L1920 163L1920 0L1745 0L1571 0L1396 0L1222 0L1047 0L873 0L698 0L524 0L349 0L175 0L0 0Z" fill="#00cc8e"></path><path d="M0 617L175 541L349 627L524 584L698 692L873 617L1047 681L1222 552L1396 573L1571 649L1745 649L1920 671L1920 161L1745 247L1571 172L1396 215L1222 377L1047 215L873 215L698 237L524 204L349 280L175 291L0 409Z" fill="#00b98a"></path><path d="M0 843L175 725L349 714L524 757L698 789L873 725L1047 865L1222 843L1396 897L1571 822L1745 822L1920 757L1920 669L1745 647L1571 647L1396 571L1222 550L1047 679L873 615L698 690L524 582L349 625L175 539L0 615Z" fill="#00a784"></path><path d="M0 919L175 876L349 865L524 919L698 973L873 865L1047 962L1222 984L1396 995L1571 984L1745 930L1920 865L1920 755L1745 820L1571 820L1396 895L1222 841L1047 863L873 723L698 787L524 755L349 712L175 723L0 841Z" fill="#00957c"></path><path d="M0 1081L175 1081L349 1081L524 1081L698 1081L873 1081L1047 1081L1222 1081L1396 1081L1571 1081L1745 1081L1920 1081L1920 863L1745 928L1571 982L1396 993L1222 982L1047 960L873 863L698 971L524 917L349 863L175 874L0 917Z" fill="#038373"></path></svg>